<svg width="19" height="19" viewBox="0 0 19 19" fill="none" xmlns="http://www.w3.org/2000/svg">
<path d="M9.05798 0C7.26648 0 5.51521 0.531241 4.02564 1.52654C2.53606 2.52185 1.37508 3.93651 0.689501 5.59164C0.00392467 7.24676 -0.175453 9.06802 0.17405 10.8251C0.523554 12.5822 1.38624 14.1961 2.65302 15.4629C3.9198 16.7297 5.53378 17.5924 7.29085 17.9419C9.04793 18.2914 10.8692 18.112 12.5243 17.4264C14.1794 16.7409 15.5941 15.5799 16.5894 14.0903C17.5847 12.6007 18.1159 10.8495 18.1159 9.05797C18.1159 7.86846 17.8817 6.6906 17.4264 5.59164C16.9712 4.49267 16.304 3.49413 15.4629 2.65302C14.6218 1.81191 13.6233 1.1447 12.5243 0.689497C11.4253 0.234291 10.2475 0 9.05798 0ZM9.05798 16.3043C7.62478 16.3043 6.22376 15.8794 5.0321 15.0831C3.84044 14.2869 2.91166 13.1551 2.3632 11.831C1.81474 10.5069 1.67123 9.04993 1.95084 7.64427C2.23044 6.23861 2.92059 4.94743 3.93401 3.93401C4.94744 2.92058 6.23862 2.23043 7.64428 1.95083C9.04994 1.67123 10.5069 1.81473 11.831 2.36319C13.1551 2.91165 14.2869 3.84044 15.0831 5.0321C15.8794 6.22376 16.3044 7.62477 16.3044 9.05797C16.3044 10.9798 15.5409 12.823 14.1819 14.1819C12.823 15.5409 10.9798 16.3043 9.05798 16.3043Z" fill="#181725"/>
<path d="M9.05797 13.587C9.55823 13.587 9.96377 13.1814 9.96377 12.6812C9.96377 12.1809 9.55823 11.7754 9.05797 11.7754C8.55772 11.7754 8.15218 12.1809 8.15218 12.6812C8.15218 13.1814 8.55772 13.587 9.05797 13.587Z" fill="#181725"/>
<path d="M9.05797 4.52901C8.81774 4.52901 8.58735 4.62444 8.41748 4.79431C8.24761 4.96418 8.15218 5.19457 8.15218 5.4348V9.96379C8.15218 10.204 8.24761 10.4344 8.41748 10.6043C8.58735 10.7742 8.81774 10.8696 9.05797 10.8696C9.29821 10.8696 9.5286 10.7742 9.69847 10.6043C9.86834 10.4344 9.96377 10.204 9.96377 9.96379V5.4348C9.96377 5.19457 9.86834 4.96418 9.69847 4.79431C9.5286 4.62444 9.29821 4.52901 9.05797 4.52901Z" fill="#181725"/>
</svg>
