<svg width="17" height="19" viewBox="0 0 17 19" fill="none" xmlns="http://www.w3.org/2000/svg">
<path d="M15.8603 11.9628L14.2299 10.3234V6.28377C14.2516 4.7837 13.7298 3.32644 12.7609 2.18106C11.792 1.03568 10.4414 0.279541 8.95851 0.0522586C8.09789 -0.0610795 7.22299 0.0104268 6.39219 0.262006C5.56139 0.513586 4.79379 0.939453 4.14062 1.51119C3.48745 2.08293 2.96372 2.7874 2.60438 3.57758C2.24503 4.36777 2.05834 5.22551 2.05676 6.09356V10.3234L0.42642 11.9628C0.221637 12.171 0.0827661 12.4349 0.0271687 12.7216C-0.0284288 13.0083 0.00171368 13.305 0.113828 13.5747C0.225942 13.8443 0.415053 14.0749 0.657521 14.2377C0.899988 14.4005 1.18505 14.4882 1.47708 14.4898H4.52038V14.7977C4.56268 15.7173 4.96777 16.5825 5.64687 17.2039C6.32597 17.8253 7.2237 18.1521 8.14335 18.1128C9.06299 18.1521 9.96072 17.8253 10.6398 17.2039C11.3189 16.5825 11.724 15.7173 11.7663 14.7977V14.4898H14.8096C15.1016 14.4882 15.3867 14.4005 15.6292 14.2377C15.8716 14.0749 16.0607 13.8443 16.1729 13.5747C16.285 13.305 16.3151 13.0083 16.2595 12.7216C16.2039 12.4349 16.0651 12.171 15.8603 11.9628ZM9.95483 14.7977C9.9046 15.2334 9.68822 15.6329 9.35077 15.913C9.01331 16.1931 8.5808 16.3322 8.14335 16.3013C7.70589 16.3322 7.27338 16.1931 6.93593 15.913C6.59847 15.6329 6.38209 15.2334 6.33186 14.7977V14.4898H9.95483V14.7977ZM2.26508 12.6783L3.33385 11.6095C3.50338 11.441 3.63788 11.2406 3.72959 11.0199C3.82131 10.7991 3.86843 10.5624 3.86824 10.3234V6.09356C3.86873 5.48255 3.99992 4.87871 4.253 4.32257C4.50607 3.76643 4.87518 3.27086 5.33554 2.86912C5.7897 2.45762 6.32785 2.14973 6.91275 1.96676C7.49765 1.78378 8.11532 1.73009 8.72302 1.8094C9.77049 1.97948 10.7213 2.52223 11.4003 3.33773C12.0793 4.15323 12.4409 5.18658 12.4184 6.24754V10.3234C12.4171 10.5618 12.4628 10.7981 12.5529 11.0188C12.6431 11.2395 12.7759 11.4403 12.9438 11.6095L14.0216 12.6783H2.26508Z" fill="#181725"/>
</svg>
