<svg width="19" height="14" viewBox="0 0 19 14" fill="none" xmlns="http://www.w3.org/2000/svg">
<path d="M1.81152 0.0908203H16.3047C16.7589 0.0909167 17.1963 0.284163 17.5195 0.630859C17.8429 0.977836 18.0254 1.45019 18.0254 1.94336V11.6582C18.0254 12.1514 17.843 12.6237 17.5195 12.9707C17.1963 13.3174 16.7589 13.5106 16.3047 13.5107H1.81152C1.35726 13.5107 0.91998 13.3174 0.59668 12.9707C0.273158 12.6237 0.0908203 12.1515 0.0908203 11.6582V1.94336C0.0908203 1.45012 0.273205 0.977848 0.59668 0.630859C0.919984 0.284095 1.35724 0.0908404 1.81152 0.0908203ZM1.7207 11.749H16.3945V1.85254H1.7207V11.749ZM9.96387 6.8916H14.4932C14.7071 6.89172 14.914 6.98298 15.0674 7.14746C15.2208 7.31222 15.3076 7.53707 15.3076 7.77246C15.3075 8.0079 15.2209 8.23274 15.0674 8.39746C14.914 8.56194 14.7071 8.6532 14.4932 8.65332H9.96387C9.74983 8.65332 9.54309 8.56198 9.38965 8.39746C9.23606 8.23272 9.14851 8.00797 9.14844 7.77246C9.14844 7.53694 9.23611 7.31224 9.38965 7.14746C9.5431 6.98287 9.74979 6.8916 9.96387 6.8916ZM9.96387 3.97656H14.4932C14.7071 3.97668 14.914 4.06794 15.0674 4.23242C15.2209 4.39716 15.3076 4.62198 15.3076 4.85742C15.3076 5.09284 15.2208 5.31766 15.0674 5.48242C14.914 5.6469 14.7071 5.73816 14.4932 5.73828H9.96387C9.74979 5.73828 9.5431 5.64701 9.38965 5.48242C9.23608 5.31763 9.14844 5.09296 9.14844 4.85742C9.14849 4.62188 9.23604 4.39718 9.38965 4.23242C9.54309 4.06787 9.74981 3.97656 9.96387 3.97656Z" fill="#181725" stroke="white" stroke-width="0.181159"/>
<g clip-path="url(#clip0_1_1299)">
<path d="M6.11432 4.70622V5.21591C6.11432 5.49165 5.9897 5.75067 5.77368 5.9345C5.54935 6.12668 5.25856 6.2353 4.95115 6.2353C4.64374 6.2353 4.34464 6.12668 4.12862 5.9345C3.9126 5.75067 3.78798 5.49165 3.78798 5.21591V4.70622C3.78798 4.43884 3.9126 4.17981 4.12862 3.98763C4.34464 3.79545 4.64374 3.68683 4.95115 3.68683C5.25856 3.68683 5.54935 3.79545 5.77368 3.98763C5.9897 4.17981 6.11432 4.43884 6.11432 4.70622Z" fill="#181725"/>
<path d="M6.98671 7.7142V8.13198C6.98671 8.33252 6.88701 8.53305 6.72915 8.6751C6.56298 8.81714 6.33865 8.9007 6.11433 8.9007H3.78798C3.55535 8.9007 3.33102 8.81714 3.17316 8.6751C3.007 8.53305 2.9156 8.33252 2.9156 8.13198V7.68913C2.9156 7.40504 3.0153 7.12095 3.19809 6.88699C3.38087 6.65303 3.63843 6.46921 3.93753 6.36058C3.97908 6.35223 4.01231 6.34387 4.05385 6.34387C4.09539 6.34387 4.12863 6.35223 4.17017 6.36058H5.65737C5.67398 6.36058 5.68229 6.36058 5.6906 6.36894C5.6906 6.36058 5.69891 6.36058 5.69891 6.36058C5.83184 6.35223 5.91493 6.36058 5.92324 6.36058C6.23895 6.46921 6.50482 6.65303 6.69592 6.89534C6.8787 7.13766 6.98671 7.42175 6.98671 7.7142Z" fill="#181725"/>
</g>
<defs>
<clipPath id="clip0_1_1299">
<rect width="5.43478" height="6.96041" fill="white" transform="translate(2.71739 3.68683)"/>
</clipPath>
</defs>
</svg>
