<svg width="18" height="21" viewBox="0 0 18 21" fill="none" xmlns="http://www.w3.org/2000/svg">
<path fill-rule="evenodd" clip-rule="evenodd" d="M0.905792 8.55838C0.920078 4.31761 4.3403 0.89146 8.54507 0.905868C12.7498 0.920276 16.1469 4.36978 16.1326 8.61056V8.69752C16.0809 11.4542 14.5547 14.0021 12.6837 15.9935C11.6137 17.1142 10.4188 18.1063 9.12276 18.9502C8.77621 19.2525 8.26219 19.2525 7.91565 18.9502C5.98361 17.6818 4.28792 16.0805 2.90614 14.2195C1.67459 12.5967 0.975365 10.6269 0.905792 8.58447L0.905792 8.55838Z" stroke="#181725" stroke-width="1.81159" stroke-linecap="round" stroke-linejoin="round"/>
<path fill-rule="evenodd" clip-rule="evenodd" d="M8.51926 10.8451C9.69062 10.8451 10.6402 9.88744 10.6402 8.70605C10.6402 7.52466 9.69062 6.56696 8.51926 6.56696C7.3479 6.56696 6.39833 7.52466 6.39833 8.70605C6.39833 9.88744 7.3479 10.8451 8.51926 10.8451Z" stroke="#181725" stroke-width="1.81159" stroke-linecap="round" stroke-linejoin="round"/>
</svg>
