<svg width="19" height="20" viewBox="0 0 19 20" fill="none" xmlns="http://www.w3.org/2000/svg">
<path d="M3.62318 0.905823L0.905792 4.52901V17.2102C0.905792 17.6906 1.09666 18.1514 1.4364 18.4912C1.77614 18.8309 2.23692 19.0218 2.71739 19.0218H15.3985C15.879 19.0218 16.3398 18.8309 16.6795 18.4912C17.0193 18.1514 17.2101 17.6906 17.2101 17.2102V4.52901L14.4927 0.905823H3.62318Z" stroke="#181725" stroke-width="1.81159" stroke-linecap="round" stroke-linejoin="round"/>
<path d="M0.905792 4.52899H17.2101" stroke="#181725" stroke-width="1.81159" stroke-linecap="round" stroke-linejoin="round"/>
<path d="M12.6811 8.15222C12.6811 9.11315 12.2994 10.0347 11.6199 10.7142C10.9405 11.3937 10.0189 11.7754 9.05796 11.7754C8.09703 11.7754 7.17546 11.3937 6.49598 10.7142C5.8165 10.0347 5.43477 9.11315 5.43477 8.15222" stroke="#181725" stroke-width="1.81159" stroke-linecap="round" stroke-linejoin="round"/>
</svg>
