<svg width="19" height="13" viewBox="0 0 19 13" fill="none" xmlns="http://www.w3.org/2000/svg">
<path d="M16.3043 3.4802V1.7401H1.81159V3.4802H16.3043ZM16.3043 5.22031H1.81159V10.4406H16.3043V5.22031ZM1.81159 0H16.3043C16.7848 0 17.2456 0.183332 17.5853 0.509664C17.9251 0.835997 18.1159 1.2786 18.1159 1.7401V10.4406C18.1159 10.9021 17.9251 11.3447 17.5853 11.6711C17.2456 11.9974 16.7848 12.1807 16.3043 12.1807H1.81159C1.33113 12.1807 0.870344 11.9974 0.530604 11.6711C0.190864 11.3447 0 10.9021 0 10.4406V1.7401C0 1.2786 0.190864 0.835997 0.530604 0.509664C0.870344 0.183332 1.33113 0 1.81159 0ZM3.62319 6.96041H4.52899C4.76922 6.96041 4.99961 7.05207 5.16948 7.21524C5.33935 7.37841 5.43478 7.59971 5.43478 7.83046C5.43478 8.06121 5.33935 8.28251 5.16948 8.44568C4.99961 8.60884 4.76922 8.70051 4.52899 8.70051H3.62319C3.38296 8.70051 3.15256 8.60884 2.98269 8.44568C2.81282 8.28251 2.71739 8.06121 2.71739 7.83046C2.71739 7.59971 2.81282 7.37841 2.98269 7.21524C3.15256 7.05207 3.38296 6.96041 3.62319 6.96041ZM8.15217 6.96041H12.6812C12.9214 6.96041 13.1518 7.05207 13.3217 7.21524C13.4915 7.37841 13.587 7.59971 13.587 7.83046C13.587 8.06121 13.4915 8.28251 13.3217 8.44568C13.1518 8.60884 12.9214 8.70051 12.6812 8.70051H8.15217C7.91194 8.70051 7.68155 8.60884 7.51168 8.44568C7.34181 8.28251 7.24638 8.06121 7.24638 7.83046C7.24638 7.59971 7.34181 7.37841 7.51168 7.21524C7.68155 7.05207 7.91194 6.96041 8.15217 6.96041Z" fill="#181725"/>
</svg>
