<svg width="21" height="20" viewBox="0 0 21 20" fill="none" xmlns="http://www.w3.org/2000/svg">
<path d="M12.4034 0.318993C12.6616 0.0712049 13.0799 0.071719 13.338 0.319669L15.3086 2.21251C15.5666 2.46043 15.5673 2.86222 15.3093 3.11022C14.7521 3.64539 14.7521 4.5166 15.3093 5.05177C15.8665 5.58661 16.7729 5.58613 17.3299 5.05109C17.5881 4.80334 18.0064 4.80394 18.2645 5.05177L20.2351 6.94461C20.4932 7.19252 20.4938 7.59429 20.2358 7.84232L8.16498 19.4368C7.90681 19.6848 7.48788 19.6848 7.22968 19.4368L5.25907 17.544C5.00099 17.2959 5.00094 16.8935 5.25907 16.6456C5.81587 16.1105 5.81651 15.2398 5.25978 14.7047C4.7027 14.1696 3.79561 14.1698 3.23846 14.7047C2.98032 14.9527 2.56137 14.9526 2.30316 14.7047L0.332556 12.8119C0.0743512 12.5639 0.0743849 12.1615 0.332556 11.9135L12.4034 0.318993ZM2.82856 13.4139C3.88611 12.8014 5.28252 12.9311 6.19437 13.807C7.10586 14.6828 7.23964 16.0229 6.60215 17.0386L7.69733 18.0906L10.3349 15.5571L9.32424 14.5863C9.06617 14.3384 9.06567 13.9366 9.32354 13.6886C9.58171 13.4406 10.0006 13.4406 10.2588 13.6886L11.2695 14.6594L18.8336 7.3938L17.7384 6.34185C16.6811 6.95399 15.2857 6.82559 14.374 5.95015C13.4622 5.07436 13.3273 3.73297 13.9648 2.71717L12.8703 1.6659L5.30626 8.93148L6.31692 9.90225C6.57509 10.1502 6.57509 10.5527 6.31692 10.8006C6.05872 11.0483 5.64043 11.0479 5.38232 10.8L4.37166 9.82919L1.73409 12.3627L2.82856 13.4139Z" fill="#181725" stroke="#181725" stroke-width="0.271739"/>
<path d="M6.85996 11.3226C7.11809 11.0746 7.53716 11.0746 7.79526 11.3226L8.77986 12.2683C9.03797 12.5162 9.03797 12.9188 8.77986 13.1667C8.52172 13.4143 8.10329 13.4139 7.84526 13.166L6.86066 12.2203C6.60267 11.9725 6.60217 11.5706 6.85996 11.3226Z" fill="#181725" stroke="#181725" stroke-width="0.271739"/>
</svg>
