<svg width="19" height="19" viewBox="0 0 19 19" fill="none" xmlns="http://www.w3.org/2000/svg">
<path d="M9.05798 0C7.26648 0 5.51521 0.531241 4.02564 1.52654C2.53606 2.52185 1.37508 3.93651 0.689501 5.59164C0.00392467 7.24676 -0.175453 9.06802 0.17405 10.8251C0.523554 12.5822 1.38624 14.1961 2.65302 15.4629C3.9198 16.7297 5.53378 17.5924 7.29085 17.9419C9.04793 18.2914 10.8692 18.112 12.5243 17.4264C14.1794 16.7409 15.5941 15.5799 16.5894 14.0903C17.5847 12.6007 18.1159 10.8495 18.1159 9.05797C18.1159 7.86846 17.8817 6.6906 17.4264 5.59164C16.9712 4.49267 16.304 3.49413 15.4629 2.65302C14.6218 1.81191 13.6233 1.1447 12.5243 0.689497C11.4253 0.234291 10.2475 0 9.05798 0ZM9.05798 16.3043C7.62478 16.3043 6.22376 15.8794 5.0321 15.0831C3.84044 14.2869 2.91166 13.1551 2.3632 11.831C1.81474 10.5069 1.67123 9.04993 1.95084 7.64427C2.23044 6.23861 2.92059 4.94743 3.93401 3.93401C4.94744 2.92058 6.23862 2.23043 7.64428 1.95083C9.04994 1.67123 10.5069 1.81473 11.831 2.36319C13.1551 2.91165 14.2869 3.84044 15.0831 5.0321C15.8794 6.22376 16.3044 7.62477 16.3044 9.05797C16.3044 10.9798 15.5409 12.823 14.1819 14.1819C12.823 15.5409 10.9798 16.3043 9.05798 16.3043Z" fill="#181725"/>
<path d="M9.25501 3.62326C8.41419 3.62326 7.60782 3.95727 7.01327 4.55182C6.41873 5.14636 6.08472 5.95274 6.08472 6.79355C6.08472 7.03378 6.18015 7.26418 6.35002 7.43405C6.51989 7.60391 6.75028 7.69935 6.99051 7.69935C7.23075 7.69935 7.46114 7.60391 7.63101 7.43405C7.80088 7.26418 7.89631 7.03378 7.89631 6.79355C7.89631 6.52483 7.976 6.26214 8.12529 6.0387C8.27459 5.81526 8.48679 5.64112 8.73506 5.53828C8.98333 5.43544 9.25651 5.40854 9.52008 5.46096C9.78364 5.51339 10.0257 5.64279 10.2157 5.83281C10.4058 6.02282 10.5352 6.26492 10.5876 6.52848C10.64 6.79204 10.6131 7.06523 10.5103 7.3135C10.4074 7.56177 10.2333 7.77397 10.0099 7.92326C9.78642 8.07256 9.52373 8.15225 9.25501 8.15225C9.01477 8.15225 8.78438 8.24768 8.61451 8.41755C8.44464 8.58742 8.34921 8.81781 8.34921 9.05804V10.8696C8.34921 11.1099 8.44464 11.3403 8.61451 11.5101C8.78438 11.68 9.01477 11.7754 9.25501 11.7754C9.49524 11.7754 9.72563 11.68 9.8955 11.5101C10.0654 11.3403 10.1608 11.1099 10.1608 10.8696V9.81891C10.8928 9.60515 11.5228 9.134 11.9348 8.49232C12.3468 7.85063 12.5129 7.08165 12.4026 6.32712C12.2923 5.57259 11.913 4.88337 11.3345 4.38648C10.7561 3.88959 10.0175 3.61853 9.25501 3.62326Z" fill="#181725"/>
<path d="M9.25501 14.4927C9.75527 14.4927 10.1608 14.0872 10.1608 13.5869C10.1608 13.0867 9.75527 12.6812 9.25501 12.6812C8.75475 12.6812 8.34921 13.0867 8.34921 13.5869C8.34921 14.0872 8.75475 14.4927 9.25501 14.4927Z" fill="#181725"/>
</svg>
